<svg xmlns="http://www.w3.org/2000/svg" viewBox="0 0 100 100" width="100" height="100">
  <!-- Background Circle -->
  <circle cx="50" cy="50" r="48" fill="#06B6D4" />

  <!-- Left Ear -->
  <polygon points="26,45 18,18 42,32" fill="#CFFAFE" />
  <polygon points="26,40 22,23 38,32" fill="#67E8F9" />

  <!-- Right Ear -->
  <polygon points="74,45 82,18 58,32" fill="#CFFAFE" />
  <polygon points="74,40 78,23 62,32" fill="#67E8F9" />

  <!-- Cat Head -->
  <ellipse cx="50" cy="56" rx="28" ry="24" fill="#CFFAFE" />

  <!-- Eyes (if not covered by shades) -->

  <ellipse cx="40" cy="52" rx="4" ry="5" fill="#164E63" />
  <ellipse cx="60" cy="52" rx="4" ry="5" fill="#164E63" />
  <circle cx="41.5" cy="50" r="1.5" fill="#FFFFFF" />
  <circle cx="61.5" cy="50" r="1.5" fill="#FFFFFF" />


  <!-- Nose & Mouth -->
  <polygon points="48,60 52,60 50,63" fill="#F43F5E" />
  <path d="M 46 64 Q 50 67 54 64" stroke="#475569" stroke-width="1.5" stroke-linecap="round" fill="none" />

  <!-- Whiskers -->
  <line x1="24" y1="58" x2="38" y2="60" stroke="#64748B" stroke-width="1.5" stroke-linecap="round" />
  <line x1="23" y1="64" x2="37" y2="63" stroke="#64748B" stroke-width="1.5" stroke-linecap="round" />
  <line x1="62" y1="60" x2="76" y2="58" stroke="#64748B" stroke-width="1.5" stroke-linecap="round" />
  <line x1="63" y1="63" x2="77" y2="64" stroke="#64748B" stroke-width="1.5" stroke-linecap="round" />

  <!-- Accessories -->

</svg>